<svg xmlns="http://www.w3.org/2000/svg" xmlns:xlink="http://www.w3.org/1999/xlink" fill="none" version="1.1" width="20" height="20" viewBox="0 0 20 20"><defs><mask id="master_svg0_0_115692" style="mask-type:alpha" maskUnits="userSpaceOnUse"><g><rect x="20" y="0" width="20" height="20" rx="0" fill="#FFFFFF" fill-opacity="1"/></g></mask></defs><g transform="matrix(-1,8.742278367890322e-8,8.742278367890322e-8,1,40,-0.0000017484556735780643)" mask="url(#master_svg0_0_115692)"><g><path d="M29.190778289337157,12.952899523162841C29.190778289337157,12.952899523162841,26.18629428933716,9.655799523162841,26.18629428933716,9.655799523162841C25.820364289337157,9.254229523162842,25.73870408933716,8.794749523162842,25.941314289337157,8.277354523162842C26.143153289337157,7.759117523162842,26.504077289337157,7.499999523162842,27.024078289337158,7.499999523162842C27.024078289337158,7.499999523162842,32.97526828933716,7.499999523162842,32.97526828933716,7.499999523162842C33.49526828933716,7.499999523162842,33.85619828933716,7.759117523162842,34.05803828933716,8.277354523162842C34.260648289337155,8.794749523162842,34.178988289337155,9.254229523162842,33.81305828933716,9.655799523162841C33.81305828933716,9.655799523162841,30.80856828933716,12.952899523162841,30.80856828933716,12.952899523162841C30.693018289337157,13.079709523162842,30.567828289337157,13.174819523162842,30.43301828933716,13.238219523162842C30.298198289337158,13.301629523162841,30.15374828933716,13.333329523162842,29.999678289337158,13.333329523162842C29.845598289337158,13.333329523162842,29.70114828933716,13.301629523162841,29.566338289337157,13.238219523162842C29.43151828933716,13.174819523162842,29.30633828933716,13.079709523162842,29.190778289337157,12.952899523162841C29.190778289337157,12.952899523162841,29.190778289337157,12.952899523162841,29.190778289337157,12.952899523162841Z" fill="#58707F" fill-opacity="1"/></g></g></svg>