<?xml version="1.0" encoding="utf-8"?>
<!-- Generator: Adobe Illustrator 25.4.1, SVG Export Plug-In . SVG Version: 6.00 Build 0)  -->
<svg version="1.1" id="Group_101226" xmlns="http://www.w3.org/2000/svg" xmlns:xlink="http://www.w3.org/1999/xlink" x="0px"
	 y="0px" viewBox="0 0 225.4 87.1" style="enable-background:new 0 0 225.4 87.1;" xml:space="preserve">
<style type="text/css">
	.st0{fill:#FFFFFF;}
</style>
<path id="Path_9232" class="st0" d="M73.5,73.2c0.2-0.2-0.1-0.3-0.1-0.4C73.1,73.2,73.5,73.3,73.5,73.2z"/>
<path id="Path_9233" class="st0" d="M70.3,76.9v-0.2L70,77.4L70.3,76.9z"/>
<path id="Path_9234" class="st0" d="M66.7,79.4c0.6,0.2,1.4-0.9,2.1-1.3H69l0.1-0.5c-0.4,0.3-0.8,0.7-1.1,1
	C67.5,79,67.1,79.2,66.7,79.4L66.7,79.4z"/>
<path id="Path_9235" class="st0" d="M64.1,79.7c0.2,0.1-0.4,0.4,0.5-0.2h-0.1C64.4,79.6,64.3,79.7,64.1,79.7L64.1,79.7z"/>
<path id="Path_9236" class="st0" d="M64.5,79.5C64.9,79.3,64.2,79.5,64.5,79.5z"/>
<path id="Path_9237" class="st0" d="M62.7,80.6l0.5-0.4c-0.2-0.1-0.6,0.2-0.5,0C62.1,80.6,62.3,80.6,62.7,80.6z"/>
<path id="Path_9238" class="st0" d="M62.3,81.2c0.1,0,0.1-0.1,0.2-0.1l0.1-0.1C62.5,81,62.4,81,62.3,81.2L62.3,81.2z"/>
<path id="Path_9239" class="st0" d="M63.1,80.6L62.6,81c0.2,0.1,0.2,0.2,0.3-0.2C62.8,80.9,62.9,80.8,63.1,80.6L63.1,80.6z"/>
<path id="Path_9240" class="st0" d="M63.5,80.4c0.3-0.1,0.8-0.2,0.3,0.3c0.5-0.3,0.7-0.5,0.6-0.6C64.3,80.1,64,80.2,63.5,80.4z"/>
<path id="Path_9241" class="st0" d="M66.8,80l0.5-0.2l0.3-0.4C67.4,79.7,66.7,79.9,66.8,80L66.8,80z"/>
<path id="Path_9242" class="st0" d="M59.1,81.9c0,0.1,0.3,0.2,0.4,0.3l0.4-0.3C59.6,81.9,59.2,82,59.1,81.9L59.1,81.9z"/>
<path id="Path_9243" class="st0" d="M59.5,82.2L59,82.6C59.5,82.4,59.6,82.3,59.5,82.2z"/>
<path id="Path_9244" class="st0" d="M62.5,81.7c0,0,0.1-0.1,0.2-0.1c0.1-0.1,0.2-0.2,0.3-0.3l0.4-0.4c0,0-0.3,0.3-0.5,0.5
	C62.7,81.5,62.6,81.6,62.5,81.7c-0.1,0-0.1,0.1-0.2,0.1L62.5,81.7z"/>
<path id="Path_9245" class="st0" d="M56.7,82.8l0.3-0.4L56.7,82.8L56.5,83C56.6,83,56.6,82.9,56.7,82.8L56.7,82.8z"/>
<path id="Path_9246" class="st0" d="M55.1,83.3c0.2-0.3-0.4-0.3-0.2-0.5c-0.4,0.2-0.7,0.4-1,0.7C54.2,83.3,54.7,83.2,55.1,83.3
	L55.1,83.3z"/>
<path id="Path_9247" class="st0" d="M53.3,83.8c0.2-0.1,0.3-0.2,0.5-0.3C53.7,83.6,53.5,83.7,53.3,83.8z"/>
<path id="Path_9248" class="st0" d="M57.9,83c-0.2-0.1-0.4-0.2-0.6-0.2l0.4,0.2C57.7,83,57.8,83,57.9,83L57.9,83z"/>
<path id="Path_9249" class="st0" d="M57.6,83L57.6,83c-0.2,0.1-0.4,0.1-0.6,0.2C57.2,83.2,57.4,83.1,57.6,83z"/>
<path id="Path_9250" class="st0" d="M57.9,82.9C57.9,82.9,57.9,83,57.9,82.9C57.9,83,57.9,83,57.9,82.9C57.9,83,57.9,83,57.9,82.9
	L57.9,82.9z"/>
<path id="Path_9251" class="st0" d="M60.7,82.3c-0.3,0.3-1,0.8-0.2,0.7C60.7,82.7,60.3,82.7,60.7,82.3z"/>
<path id="Path_9252" class="st0" d="M58.3,83.2c0,0,0.2-0.1,0.4-0.1c0.1,0,0.3,0,0.4-0.1c-0.1-0.1-0.2-0.1-0.1-0.3
	c-0.1,0.1-0.2,0.2-0.3,0.3C58.6,83.1,58.4,83.1,58.3,83.2L58.3,83.2z"/>
<path id="Path_9253" class="st0" d="M58,83.4l0.3-0.2L58,83.4L58,83.4z"/>
<path id="Path_9254" class="st0" d="M54.6,83.8c-0.3,0.2-0.6,0.3-1,0.4c0.4,0,0.8-0.1,1.3-0.2C54.8,83.9,55,83.7,54.6,83.8
	L54.6,83.8z"/>
<path id="Path_9255" class="st0" d="M56,83.5L56,83.5C56,83.6,56.1,83.6,56,83.5z"/>
<path id="Path_9256" class="st0" d="M49.9,84.9L49.9,84.9L49.9,84.9L49.9,84.9L49.9,84.9z"/>
<path id="Path_9257" class="st0" d="M54.9,84.1c0.2,0,0.5-0.1,0.6-0.3C55.3,83.9,55.1,84,54.9,84.1C54.8,84.1,54.8,84.1,54.9,84.1z"
	/>
<path id="Path_9258" class="st0" d="M52.3,84.2c0.2,0,0.3,0.1,0.5,0C52.7,84.2,52.3,84.1,52.3,84.2z"/>
<path id="Path_9259" class="st0" d="M55.9,83.5L55.9,83.5L55.9,83.5C55.8,83.5,55.8,83.5,55.9,83.5z"/>
<path id="Path_9260" class="st0" d="M55.9,83.5c-0.1,0.1-0.3,0.1-0.4,0.3c0.2,0,0.3-0.1,0.5-0.2C55.9,83.6,55.9,83.5,55.9,83.5
	L55.9,83.5z"/>
<path id="Path_9261" class="st0" d="M48.9,86.9c0.1-0.3,0.8-0.6,1.6-0.4c0.7-0.3,0.1-1.1-0.6-1.6c0,0.2,0,0.3-0.7,0.5
	c0.3,0.1,1.6,0.1,1.1,0.4c-1,0.3-0.8,0.1-1.3,0c0.2,0.2-0.1,0.3-0.4,0.5c-0.4,0.2-0.7,0.4-0.6,0.6l0.4-0.2l0.4-0.1
	C49,86.7,48.7,86.8,48.9,86.9L48.9,86.9z"/>
<path id="Path_9262" class="st0" d="M51.3,84.8l0.3-0.1c-0.4,0-0.7,0-1-0.2c-0.2,0-0.4,0.2-0.6,0.4c0.2,0,0.5,0,0.7-0.1l0.7-0.1
	L51.3,84.8z"/>
<path id="Path_9263" class="st0" d="M52.8,84.4c-0.2,0.3-0.8,0.6-0.3,0.8c0.2,0,0.5-0.1,0.6-0.3c0.1-0.1,0.2-0.2,0.4-0.3
	C52.2,85.1,53.9,84.4,52.8,84.4c0.3-0.1,0.5-0.2,0.7-0.2h-0.7C52.8,84.2,52.9,84.2,52.8,84.4L52.8,84.4L52.8,84.4L52.8,84.4
	C52.9,84.4,52.9,84.4,52.8,84.4C52.4,84.4,52.7,84.3,52.8,84.4l0.1-0.2l0,0c-0.1,0-0.1,0-0.2,0.1c-0.1,0-0.3,0.1-0.5,0.2
	c-0.2,0-0.5,0.1-0.7,0.2C52,84.6,52.4,84.6,52.8,84.4L52.8,84.4z"/>
<path id="Path_9264" class="st0" d="M60.1,83.8C60,83.8,60,83.8,60.1,83.8C60,83.8,60,83.8,60.1,83.8C59.9,83.9,59.9,83.9,60.1,83.8
	z"/>
<path id="Path_9265" class="st0" d="M59.5,83.9c0.1-0.2,0.2-0.3,0.4-0.3c0.3,0,0.1,0.2,0.1,0.2c0.2-0.1,0.6-0.4-0.1-0.4l-0.1,0.1
	c-0.3,0-0.6,0.1-0.9,0.1c-0.3-0.1-0.4-0.1-0.4-0.1C58.8,83.7,59.1,83.8,59.5,83.9L59.5,83.9z"/>
<path id="Path_9266" class="st0" d="M56.1,84.4L55,84.9h0.6l-0.1-0.2C56.3,84.7,56.1,84.5,56.1,84.4L56.1,84.4z"/>
<path id="Path_9267" class="st0" d="M49.7,84.8l0.1-0.3L49.2,85L49.7,84.8z"/>
<path id="Path_9268" class="st0" d="M48.3,85v-0.3l-0.4,0.2L48.3,85z"/>
<path id="Path_9269" class="st0" d="M3.7,26.8l0.1-0.4C3.7,26.6,3.7,26.7,3.7,26.8z"/>
<path id="Path_9270" class="st0" d="M2.7,29.3l0.1,0.1C2.7,29.3,2.7,29.2,2.7,29.3z"/>
<path id="Path_9271" class="st0" d="M14.9,72.5c-0.2-0.6-0.3-1.2-0.4-0.9l-0.1,0.3C14.6,72.1,14.8,72.3,14.9,72.5L14.9,72.5z"/>
<path id="Path_9272" class="st0" d="M2.2,50.5c0,0.1-0.1,0.1-0.1,0.2c0.1,0.1,0.3,0.2,0.4,0.3L2.2,50.5z"/>
<path id="Path_9273" class="st0" d="M0.9,50.4L1,49.6C0.9,49.9,0.9,50.1,0.9,50.4z"/>
<path id="Path_9274" class="st0" d="M11.2,14.5l0.1-0.5C10.8,14.4,11.1,14.3,11.2,14.5z"/>
<path id="Path_9275" class="st0" d="M33,83.6c-0.3-0.2-0.6-0.3-0.9-0.5C32.5,83.5,32.8,83.8,33,83.6z"/>
<path id="Path_9276" class="st0" d="M6.2,29c0-0.2,0-0.3-0.1-0.3C6.1,28.9,6.1,29,6.2,29z"/>
<path id="Path_9277" class="st0" d="M30.9,82.7c0.1,0,0.2,0.1,0.2,0.2c0.3,0,0.7,0.1,1,0.3C31.8,82.8,31.3,82.7,30.9,82.7L30.9,82.7
	z"/>
<path id="Path_9278" class="st0" d="M59.5,2.3C59.5,2.4,59.6,2.4,59.5,2.3C59.6,2.4,59.5,2.4,59.5,2.3z"/>
<path id="Path_9279" class="st0" d="M70.8,12.3c-0.1-0.1-0.3-0.2-0.5-0.4C70.5,12,70.6,12.2,70.8,12.3z"/>
<path id="Path_9280" class="st0" d="M42.2,85C42.5,85,42.3,84.9,42.2,85z"/>
<path id="Path_9281" class="st0" d="M43.7,86.2c-0.1,0.1-0.1,0.1-0.1,0.2C43.6,86.2,43.7,86.2,43.7,86.2z"/>
<path id="Path_9282" class="st0" d="M27.2,83.3L27.2,83.3C27.2,83.2,27.2,83.2,27.2,83.3C27.2,83.4,27.2,83.4,27.2,83.3z"/>
<path id="Path_9283" class="st0" d="M42.7,85.1C42.6,85,42.5,85,42.3,85C42.4,85,42.5,85.1,42.7,85.1z"/>
<path id="Path_9284" class="st0" d="M42.6,85h0.3C42.9,85,42.9,84.9,42.6,85z"/>
<path id="Path_9285" class="st0" d="M41.8,84.9c0.2,0,0.4,0,0.5,0.1c0,0-0.1,0-0.1-0.1C42.2,84.9,42,84.9,41.8,84.9L41.8,84.9z"/>
<path id="Path_9286" class="st0" d="M32,2.4L32,2.4C32.3,2.2,32.2,2.2,32,2.4z"/>
<path id="Path_9287" class="st0" d="M7.2,67.7L7.2,67.7L7.2,67.7C7.2,67.6,7.2,67.6,7.2,67.7L7.2,67.7z"/>
<path id="Path_9288" class="st0" d="M6.3,66.8c0.4,0.1,0.7,0.5,0.8,0.9l0.5-0.8c-0.2,0-0.5,0-0.7-0.1H6.3z"/>
<path id="Path_9289" class="st0" d="M35.9,3.7l-0.3-0.1C36.1,3.5,36,3.6,35.9,3.7z M39.8,85.1C39.9,85.1,39.9,85,39.8,85.1
	c-0.1,0-0.3,0-0.5-0.1C39.3,85.1,39.4,85.2,39.8,85.1z M38.7,84.9L38.7,84.9C38.2,84.7,38.4,84.8,38.7,84.9z M1.9,52.5
	c-0.1-0.2-0.1-0.5-0.1-0.8C1.9,51.9,1.9,52.2,1.9,52.5z M1.6,33.1c0-0.3-0.1-0.8,0.2-0.9C2.1,32.6,1.9,32.7,1.6,33.1z M6.5,21.1
	l-0.7,0.6c0.2-1.1,0.8-1.7,0-1.1c0.4,0.3-0.1,1-0.5,1.8c-0.2,0.4-0.3,0.7-0.5,1.1c-0.1,0.3-0.1,0.6,0.1,0.7l-0.4,0.4
	c0.1-0.2,0.1-0.2,0.1-0.4c-0.9,0.8,0.3,1-0.5,2.3c-0.3,0.4-0.5,0.7-0.5,0.3c0,0.1,0,0.1-0.1,0.2c0,0.1-0.1,0.2-0.1,0.4
	C3.5,27.7,3.5,28,3.5,28c-0.2,0.3-0.3,0.2-0.1-0.2l-0.3,0.8C3,28.8,3,29,2.9,29.2c0,0.1-0.1,0.2-0.1,0.3l0,0
	c0.1,0.4,0.1,0.8,0.1,1.1c-0.3,0.4,0-0.3-0.2-0.2c0,0.2-0.1,0.3-0.1,0.5s0,0.3-0.1,0.5c-0.2,0.2-0.2,0-0.3-0.3
	c0-0.3,0.1-0.6,0.2-0.9C2,30.5,2,30.7,2,31.1c0.1,0.6-0.1,1.2-0.5,1.7l0.2-0.9C1,32.3,1,33,0.4,33.9c0.2-0.3,0.5-0.6,0.7-0.8
	c0.3-0.3,0.6-0.4,0.5,0.1c-0.2,0.4-0.2,0.8-0.2,1.2C1,34.3,1,34.9,0.9,35.5l-0.4-0.2c0,0.8,0.2,0.7,0.4,1.2c-0.1,0.5-0.4,0.9-0.9,1
	c-0.2,1.3,0.7-0.8,0.6,0.7c-0.1,0.5-0.2,1-0.2,1.5s0.1,1,0.2,1.7c-0.2,0.7-0.3-0.2-0.4,0.1c0.1,0.1,0.1,0.2,0.2,0.4
	c0.1,0.1,0.1,0.2,0.2,0.3c0,0.2-0.1,0.2-0.2,0.1c0.1,0.6,0.5,0.1,0.5,0.9c0.3,0.1,0.1,0.6-0.1,1.1c-0.2,0.6-0.2,1.2,0,1.8
	c-0.1,0.3-0.3-0.1-0.5,0c0.2,0.8,0.5,1.6,0.9,2.4c0,0-0.1,0.3-0.1,0.6c0,0.2,0,0.3-0.1,0.5c0.2-0.8,0.7,0.1,1.1,0.9
	c0.1-0.2,0.2-0.4,0.3-0.7l0.2,0.6l0.2,0.5c0,0.1,0,0.1,0.1,0.2c-0.1,0.2-0.2,0.1-0.4-0.1c0.1,0.1,0.1,0.2,0.1,0.2
	c-0.1,0.5-0.4,0.3-0.7,0C2,51,2.1,50.9,2.1,50.7c-0.3-0.3-0.6-0.5-0.9-0.4c0.1,0.1,0.1,0.3,0.2,0.4c-0.1-0.1-0.2-0.2-0.2-0.1
	c-0.1,0.1,0.1,0.2,0.2,0.4L1,51.4l0.2,0.1v1.8C1.6,53.9,2,54.4,2.5,55c0.5,0.7,0.9,1.4,1.2,2.2c-0.5-0.4-0.6,0.1-1,0.2
	c0.1-0.4,0-0.8-0.2-1.1c-0.3-0.4-0.5-0.9-0.6-1.4c0.1,0.5-0.2,0.5-0.3,0.3c0,0.1,0.1,0.2,0.2,0.3S2,55.8,2.1,56
	c0.2,0.4,0.5,0.8,0.5,0.8c-0.4,0.1-0.2,0.5-0.2,1c0.3-0.3,0.5,0,0.7,0.5s0.4,0.9,0.6,1.4c-0.1,0.1-0.3,0-0.4-0.1
	c-0.2-0.2-0.3-0.5-0.4-0.8c-0.1,0.4,0.1,0.9,0.5,1c0.3,0.3,0.7,0.5,0.6,1c-0.1-0.2-0.1-0.3-0.2-0.4c0.4,0.4,0.7,1.7,0.4,1.5
	l-0.1-0.2c0.5,1.5,2,4.2,2.7,4c-0.3,0.1-0.6,0.2-0.9,0.2c0,0,0.8,0.4,1.5,0.7C8.2,66.9,9,67.2,9,67.2c-0.6,0.1-1.1,1.5-2,0.6
	c0.1,0.5,0.5,1,0.9,1.3c-0.1-0.2,0.3-0.9,0.5-0.6c0,0.6,0.2,1.3,0.4,1.9c-0.1-0.4,0.7-0.5,1.1-0.1c-0.2,0-0.6,0.5-0.8,0.4l1.5,0.6
	c-0.3-0.2-0.5,0.4-0.5,0.8c0.1-0.2,0.8,1,1.1,1.2l-0.3-0.6c0.9,1.3,1.9,0.5,2.9,1.7c-0.3-0.1-1,0.3-0.6,1c0.3,0,0.9,0,1.7,0
	c0.4,0,0.7,0.1,1,0.2c0.4,0,0.7,0.2,1,0.3l0.1,0.4l0.5,0.2c0.1,0.1,0.2,0.1,0.4,0.2c0.1,0,0.1,0,0.2,0.1c-0.7,0-1.4,0-2-0.2
	c-0.7,0-1.5-0.2-2.2-0.5c0.3,0.6-0.1,0.3,0.6,0.9c0.1,0.4-0.6-0.1-0.8-0.3c0.1,0.1,0.2,0.1,0.3,0.2c0.2,0.2,0.3,0.4,0.5,0.6l0.8,0.7
	c0.1-0.2,0.5,0,0.8,0.2c0.4,0.2,0.8,0.4,0.9,0.2c-0.1,0-0.2-0.1-0.3-0.2c-0.2-0.1-0.5-0.3-0.7-0.4c-0.5-0.3-1-0.6-1-0.6
	c0.1-0.2,0.6-0.2,1.1-0.1c0.3,0.1,0.6,0.2,0.9,0.3c0.3,0.2,0.6,0.4,0.9,0.6c0.2,0.4-0.7,0.5-0.8,0.6c0.5,0.2,1,0.4,1.4,0.8l-0.4-0.1
	c-0.1,0-0.2,0-0.3,0c0.6,0.6,1.5,0.3,2,1.3c0.3,0.2,0.6,1,0.8,0.8c-0.1-0.9,0.4-1.8,1.1-2.3c0,0.1,0.3,0.4,0.6,0.8
	c0.3,0.3,0.5,0.6,0.8,1c0.3,0.6-1.3,0.4-1,1c0.1-0.1,0.4-0.1,0.6-0.1c0.3,0.3-0.3,0.3,0.4,0.6c0.4-0.3,1.4,0.8,0.5-0.2
	c0.8,0.3,0.7,0.5,1.5,0.9c-0.1-0.2,0.3-0.4,0.6-0.4c0.4-0.1,0.9-0.1,1.3,0c-0.1,0.1,0,0.3,0.1,0.4c0.6,0.3,1.2,0.6,1.7,0.9
	c0.3,0.1,0.5,0.3,0.8,0.4c0.3,0.2,0.6,0.3,0.9,0.4c0.1,0.2,0.7,0.5,0.4,0.6c0.3-0.1,0.6-0.1,0.9,0c0.4,0.3,0.1,0.3-0.2,0.2
	c-0.3-0.1-0.6-0.1-0.4,0.2c0.2-0.2,1.3,0,1.9,0c-0.1-0.5-1.4-0.5-2.1-0.5c0.2-0.5,1.4-0.8,2.9-0.7c1.2,0.1,0.4,0.5,0.6,0.4
	c0.4,0.1,0.8,0.2,1.3,0.2c0.3,0,0.5-0.1,0.8-0.2c0.2-0.1,0.5-0.1,0.7-0.1c0.3,0,0.7,0.1,1,0.2c0.7,0.5-0.1,0.8,0.1,1
	c-0.2,0-0.4,0-0.6,0c-0.2,0-0.4-0.1-0.5-0.2c-0.3-0.1-0.6-0.2-0.9-0.3l0.8,0.3c-0.4,0.1-0.9,0.1-1.3-0.1c0.7,0.3,1.5,0.5,2.3,0.6
	c0.5,0.1,1.1,0.2,1.7,0.3c0.5,0.1,1,0.1,1.5,0.3c0.3-0.1,0.8-0.2,0.6-0.4h-0.5c-0.5-0.3,1-0.3,0.4-0.5c0.4,0,0.8-0.2,1.2-0.3
	c0.4-0.1,0.9-0.1,1.4,0l0.2,0.4c0-0.1-0.7-0.3-0.9-0.2c0.2-0.1,0.6,0.1,1,0.2s0.8,0.2,1-0.2l-0.7-0.3c0.8-0.4,1.6-0.6,2.5-0.6
	c-0.4-0.4-0.2,0.1-0.8-0.4c0.6,0.6-2.2,0-1.4,0.7c-0.3-0.2-0.6-0.3-0.9-0.4c-0.4,0-0.7-0.2-1-0.4c0.1,0.2,0.3,0.3-0.4,0.2
	c-0.1,0.1-0.2,0.1-0.2,0.2l0,0c0.2,0,0.3,0.1,0.4,0.2c-0.3,0.2-0.6,0.3-1,0.3c-0.4,0.1-0.8,0.1-1,0.1c-0.4-0.1,0.2-0.2,0-0.3
	l-0.6,0.2c-0.1-0.3-1.1-0.6-0.1-0.7h-0.1c-0.1,0-0.2,0-0.3-0.1l-0.5-0.1c-0.6-0.2-1.2-0.4-1.8-0.4c-0.4-0.2-1.1,0.2-0.7,0
	c-0.2,0-0.5,0-0.7,0s-0.5-0.1-0.7-0.1v-0.1c-0.4-0.1-0.7-0.2-1.1-0.2c-0.4,0-0.7-0.1-1.1-0.2c-0.4-0.1-0.8-0.2-1.1-0.3
	c-0.4-0.2-0.8-0.4-1.1-0.6c-0.3,0-0.5-0.1-0.8-0.2s-0.6-0.2-0.9-0.4L29.3,82c-0.6-0.2-1.6-1-2-0.8c-0.3-0.9-2.6-1.5-3.5-2.2
	l-0.2,0.3c-0.3-0.2-0.6-0.4-1-0.5c-0.4-0.2-0.7-0.4-1.1-0.6l-0.2,0.3c-0.4-0.2-0.8-0.5-1.2-0.9c-0.1-0.1-0.2-0.2-0.4-0.3
	c-0.1-0.1-0.2-0.3-0.3-0.4c-0.2-0.2-0.5-0.4-0.7-0.6c0.2,0,0.4,0.2,0.5,0.4c-0.2-0.4-0.5-0.7-0.8-0.9c-0.3-0.3-0.6-0.5-1-0.6
	c-0.7-0.3-1.3-0.8-1.7-1.5c-0.3-0.1-0.5-0.3-0.6-0.6c0,0,0.1,0,0.1,0.1l0,0c0-0.1,0-0.1-0.1-0.1c0-0.2-0.1-0.3-0.2-0.5
	c0.1,0.2,0.1,0.3,0.2,0.4c-0.2-0.3-0.5-0.5-0.8-0.7l0.2-0.3l-0.1-0.1c-0.2-0.4-0.3-0.1-0.4,0.2c-0.1-0.1-0.3-0.2-0.5-0.3
	c0.2-0.6-0.8-0.7-0.7-1.4c-0.4-0.1-1.4-1.5-2-1.3c0.1-0.1,0-0.2,0.2,0c-0.2-0.4-0.4-0.8-0.8-1l0.2-0.4c0,0-0.3-0.2-0.5-0.3l-0.5-0.3
	c-0.1-0.6-0.1-0.9,0.5-0.6C8.6,65.6,9,65.7,8,64.9l0.3-0.1c-0.2-0.2-0.3-0.4-0.5-0.6c-0.2-0.1-0.3-0.4-0.3-0.6
	c0-0.4-0.1-0.8-0.3-1.1C7,62,6.7,61.4,6.4,60.8c-0.3-0.6-0.5-1.4-0.7-2c-0.2-0.7-0.4-1.3-0.5-2c-0.3,0.4-0.3,0.1-0.3-0.3
	s0-0.8-0.3-0.8c0.2-0.2,0.2-0.6,0.4-0.2c-0.1-0.3-0.2-0.6-0.3-0.8c-0.1-0.3-0.1-0.5-0.1-0.7c0-0.4-0.2-0.9-0.5-1.2
	c0.2-0.2,0.4,0.2,0.4,0.1c-0.1-0.1-0.3-0.4-0.2-0.5s0.2,0.2,0.3,0.3c-0.3-1.3-0.8-1.3-1.4-1.3c0.1-0.3,0.1-0.6,0-0.8S3,50.1,2.8,50
	c0.2-0.3,0.3-0.6,0.5,0.2c-0.1-0.3-0.1-0.9-0.1-1.6S3,47.3,2.8,47.3c0.1-0.2-0.1-0.6-0.1-0.7c0-0.7,0-1.4-0.1-2.1l-0.1,0.3
	C2,44.4,2.4,44,2.3,43.2h0.1c0.2-0.9,0.2-1.1,0.2-1.3c0-0.4,0.1-0.9,0.3-1.3H2.5c-0.3-0.1-0.2-0.5,0.1-1S3,38.5,3,37.9l-0.2,0.4
	c-0.1-0.3,0.2-0.7,0.6-1C3.7,37,4,36.7,4.2,36.4c0.1-0.1,0.1,0.2,0.1,0.4c0.4-0.7,0.3-0.7,0.1-0.8C4.2,36,4,36,4,35.4
	c0.3-0.2,0.5,0.4,0.7-0.4c0.2-0.2,0.1-0.7,0.1-1.4c-0.1-0.6,0.1-1.3,0.5-1.8C5,32,4.8,32.2,4.8,31.6c0.2-0.5,0.4-0.9,0.7-1.3
	c0.3-0.5,0.5-0.9,0.4-1.4c0.1-0.1,0.2-0.1,0.2-0.1c0-0.2,0-0.4,0.1-0.6c0-0.2,0.1-0.5,0.2-0.7c0.1-0.4,0.2-0.8,0.1-1.1
	c0.6,0,1-0.9,1.3-1.8c0.3-0.9,0.6-1.7,1-1.4c0,0,0.2-0.4,0.5-0.8l0.5-0.8l0.1,0.1c0.3-0.4,0.5-0.8,0.7-1.1c0.1-0.3,0.1-0.5,0.1-0.8
	c0.3-0.2,0.2,0.1,0.3,0.1c0.3-0.4,0.5-0.6,0.7-0.8c0.2-0.2,0.3-0.4,0.4-0.6c0.1-0.2,0.2-0.4,0.3-0.6c0.1-0.3,0.3-0.6,0.4-0.9
	l0.4,0.1c0.1-0.2,0.6-0.6,1.2-1.1c0.4-0.3,0.7-0.5,1-0.8c0.4-0.3,0.7-0.6,0.9-1c0.1,0.1,0.1,0.2,0,0.3c0.1-0.2,0.3-0.4,0.5-0.6
	c0.2-0.2,0.4-0.4,0.6-0.5c0.5-0.3,0.9-0.6,1.4-0.8c0.4-0.2,0.8-0.5,1.1-0.8c0.3-0.2,0.4-0.6,0.4-0.9l0.9-1c-1.4,0.9-0.1-0.6-0.8-0.4
	l0.5-0.3c0.2-0.1,0.3-0.1,0.5-0.1c0.3-0.1,0.4,0,0.1,0.3h-0.1c0.1,0.7,1.9-0.9,2.1-0.5c2.5-2,5.5-3.2,8.5-4l-0.5-0.4
	c0.3-0.1,0.7-0.2,1-0.3c0.3,0.1,0.5,0.3-0.3,0.5c0.5,0.2,1.1-0.6,1.1-0.7c1.5-0.2-0.4,0.7,0.1,0.6L34,4.4h-0.2
	c0.4-0.4,0.8-0.7,1.4-0.7c0.6-0.1,0.4,0.3,0.6,0.2c0,0.1,0.1,0.1,0.3-0.1l1.4-0.2l-0.6-0.3c0.6-0.3,1.3-0.2,0.6-0.5c1,0.2,2,0.2,3,0
	c0.6-0.1,1.2-0.1,1.7-0.1c0.3-0.1,0.7-0.1,1,0c0.4-0.1,0.8-0.2,1.3-0.3c0.5,0,0.9,0,1.4,0c-0.2-0.1-0.4-0.5,0.5-0.5
	c-0.2,0.5,0.2,0.6,0.7,0.7c0.6,0,1.1,0.2,1.5,0.6c-0.6-0.5,2.5,0.2,1.6-0.6c0.7,0.2,0,0.4,0.5,0.7c0.5,0,0.9,0,1.4,0.1
	c0.3,0.1,0.5,0.1,0.7,0.2s0.5,0.2,0.7,0.2C54,4,54.5,4.1,55,4.3s1,0.4,1.6,0.5c0.1-0.1-0.3-0.4,0.3-0.4L57,4.5
	c0.1,0.1,0.2,0.2,0.3,0.3c0.2,0.2,0.4,0.5,0.4,0.5c0.4,0.1,0.6-0.5,1.2,0.1c0-0.2-0.2-0.4,0.1-0.3c1.9,1,3.9,1.8,5.8,2.9
	c2,0.9,3.7,2.3,5.1,4c-0.3-0.5,0-0.3,0.4-0.1c-0.2-0.2,0.2-0.2,0.3-0.4c0,0,0.3,0.4,0.6,0.7s0.5,0.8,0.5,0.8c0.3-0.1,0.6,0.2,1,0.5
	s0.7,0.6,0.9,0.6l-0.5-0.4c0.5,0.1,0.5-0.3,0.4-0.8s-0.2-1,0.1-1.2c-0.5-0.1-0.8-0.6-1.2-1.2c-0.4-0.7-1-1.1-1.7-1.3
	C70.5,9,71,9.4,71,9.1c-0.5,0-0.8-0.2-1.5-0.8h0.1c-2-1.3-2.7-2-5-3.4l0.1,0.4c-0.3-0.2-0.6-0.4-0.8-0.6c-0.8,0.2,1.4,0.7,0.7,0.9
	c-0.5-0.6-1.2-1.1-2-1.3c-0.9-0.5-1.7-0.8-1.8-1.3c-0.8-0.3,0.1,0.5-0.7,0.1l-0.2-0.3L59.6,3c-0.6-0.2-0.7-0.6-0.7-0.7
	c0.2,0.1,0.4,0.1,0.6,0.1C58.7,2,58,1.8,57.2,1.6l0.4,0.2c0.1,0,0.3,0.1,0.4,0.2c-1.1-0.3-2.5-0.6-3.8-0.9c-0.6-0.2-1.3-0.3-1.9-0.4
	c-0.3-0.1-0.6-0.1-0.9-0.1c-0.3,0-0.6,0-0.9,0.1l0.2,0.2c-0.5,0-1.1,0-1.6-0.2c-0.6-0.2-1.1-0.2-1.7-0.2l0.1-0.1
	c-0.2,0.1-0.5,0.1-0.7,0.2H46c0.4-0.2-1-0.4-0.4-0.6c-0.5,0-0.9,0.1-1.4,0.3c-0.3,0.2-0.5,0.4-0.8,0.5l-0.3-0.3
	c-0.2,0.1-0.3,0.2-0.5,0.3C42.4,1,42,1,41.7,1.1c0.8-0.3-0.6-0.3,0.3-0.7c-0.8-0.2-1.6-0.1-2.4,0.2c-0.5,0.3-1.1,0.3-1.6,0
	c-0.8,0.8,1.8,0.2,1.3,0.4c0.4,0.2-0.7,0.6-1.3,0.6c-0.4,0-0.8-0.1-1.1-0.3c-0.2-0.1-0.5-0.2-0.7-0.2c-0.4,0-0.7,0-1,0.1
	c0.2-0.1,0.2-0.1,0.3-0.2c-0.6,0-1.1,0.5-1.9,0.4c-0.3,0.5-0.9,0.3-0.9,0.8c0.2-0.1,0.5-0.2,0.7-0.3l0.5-0.2c0.1,0,0.1-0.1,0.2-0.1
	C33.7,1.8,33.3,2,33,2.3c-0.5,0.3-1,0.5-1.6,0.6c0.2-0.2,0.4-0.4,0.7-0.6c-0.5-0.1-0.7,0.4-1.2,0.3c0-0.3,0.4-0.5,0.9-0.6
	c0.6-0.1,1.1-0.3,1.6-0.7c-0.5-0.1-1.6,0.9-1.3,0.2c-0.4,0.9-1.6,0.4-2.5,1.3l-0.1-0.3C29.3,2.8,29,2.9,28.7,3l0.4-0.6
	c-0.4,0.3-0.8,0.4-1.3,0.5c-0.4,0-0.8,0.1-1.2,0.4c0.2-0.2,0.5-0.2,0.8-0.3c0.2,0,0.2,0.1,0.2,0.1c0,0.1-0.1,0.3,0.3,0.3
	c-0.2,0.1-0.4,0.2-0.6,0.3c-0.1,0.1-0.3,0.1-0.4,0.2c-0.2,0.1-0.5,0.1-0.7,0c-0.7-0.1-1.5,0-2,0.5C24.5,4.2,25.5,4,25,4.3
	c-0.4,0.2-0.9,0.3-1.4,0.3c-1.5,0.8,0.4,0.2-0.2,0.7c-0.7-0.1-0.6,0.6-1.2,1L22,6c-0.9,0.4-0.9,0.6-0.9,0.8c0,0.2,0.1,0.4-0.7,0.7
	l0.4-0.7l-0.7,0.6L20.2,7c-0.2,0.2-0.3,0.3-0.5,0.4c-0.1,0.1-0.2,0.3-0.4,0.4C19,8,18.8,8.1,18.4,8.3c0.3,0.1,0.2,0.6-0.4,1.1
	c-0.6,0.2,0.1-0.5-0.8,0.3c0.1-0.3,0.2-0.7,0.7-0.8c0-0.2,0.1-0.4,0.1-0.5c-0.6,0.3-1.2,0.7-1.6,1.2c0.2-0.1,0.3-0.2,0.4-0.3
	L16.3,10l-0.5,0.7c-0.3,0.1-0.2-0.1-0.1-0.3c-0.3,0.2-0.4,0.5-0.7,0.8c-0.2-0.4-0.1-0.8,0.2-1c0,0-0.3,0.4-0.5,0.7
	c-0.1,0.1-0.3,0.3-0.4,0.5c-0.1,0.1-0.1,0.1-0.2,0.2c-0.2,0-0.8,0.3-0.7,0.1c-0.4,0.3-0.8,0.8-1,1.3c-0.3,0.5-0.7,1-1.1,1.4
	c0,0.1-0.1,0.2-0.2,0.4c-0.9,0.7-1.7,1.7-2.2,2.7L8,18c-0.5,0.9,1.1-0.5,0.2,1c-0.3,0.5-0.4,0.6-0.5,0.5c-0.2-0.1-0.3-0.3-0.4-0.1
	c-0.1,1-0.5,1.9-1.2,2.6C6.2,21.8,6.3,21.4,6.5,21.1L6.5,21.1z"/>
<path id="Path_9290" class="st0" d="M1.1,50.4c0.1,0,0.1-0.1,0.2-0.1C1.2,50.2,1.1,50.2,1.1,50.4z"/>
<path id="Path_9291" class="st0" d="M11.1,14.6L11.1,14.6l0.1-0.1L11.1,14.6z"/>
<path id="Path_9292" class="st0" d="M22.6,82.4c-0.1-0.1-0.2-0.2-0.3-0.4C22.2,82.1,22.3,82.2,22.6,82.4z"/>
<path id="Path_9293" class="st0" d="M45.5,84.8l-0.7,0.1c0.2,0,0.4,0,0.6,0.1C45.4,85,45.3,84.9,45.5,84.8L45.5,84.8z"/>
<path id="Path_9294" class="st0" d="M51.8,86.3c0.1-0.1,0.2,0,0.3-0.1L52,86.1C51.5,86.1,51.3,86.3,51.8,86.3L51.8,86.3z"/>
<path id="Path_9295" class="st0" d="M46.2,85.9c0.1,0.3,0.5,0.2,1,0.1h-0.1C47.2,85.6,46.7,85.8,46.2,85.9L46.2,85.9z"/>
<path id="Path_9296" class="st0" d="M47.3,86c0.2,0,0.3-0.1,0.5,0C47.8,85.8,47.5,85.9,47.3,86z"/>
<path id="Path_9297" class="st0" d="M41.2,85.1c0.2,0.1,0.2-0.3,0.3-0.2C41.7,84.6,39.9,85.2,41.2,85.1z"/>
<path id="Path_9298" class="st0" d="M46.6,86.8l-0.2-0.4l-0.3,0.3L46.6,86.8z"/>
<path id="Path_9299" class="st0" d="M42.7,86.6l0.8,0.1c0,0,0.1,0,0.2-0.1C43.2,86.6,42.6,86.5,42.7,86.6z"/>
<path id="Path_9300" class="st0" d="M43.7,86.6c0.2,0,0.4,0,0.6-0.1C44.1,86.5,43.9,86.5,43.7,86.6z"/>
<path id="Path_9301" class="st0" d="M45.5,87l-0.3-0.1h-0.6L45.5,87z"/>
<path id="Path_9302" class="st0" d="M34.2,85.3H34c-0.1,0-0.2,0-0.3-0.1c-0.1,0-0.3,0-0.4,0c-0.1,0.1,0.1,0.2,0.4,0.3
	C34,85.4,34.3,85.4,34.2,85.3L34.2,85.3z"/>
<path id="Path_9303" class="st0" d="M36.6,86.8c-0.3-0.1-0.3-0.2-0.4-0.3l-0.1,0.4L36.6,86.8z"/>
<path id="Path_9304" class="st0" d="M34,86.3c-0.1,0.1-1.3,0-0.2,0.3C33.9,86.5,34.8,86.6,34,86.3z"/>
<path id="Path_9305" class="st0" d="M22,80.7l0.2,0.1l0.4-0.6L22,80.7z"/>
<path id="Path_9306" class="st0" d="M11.7,74.4c0.6,0.9,0.5-0.1,1,0.7c0.3,0.1-0.4-0.7-0.2-0.6C12,74.2,11.9,73.9,11.7,74.4
	L11.7,74.4z"/>
<path id="Path_9307" class="st0" d="M12.6,74.5l0.3,0.2C12.8,74.6,12.7,74.6,12.6,74.5z"/>
<path id="Path_9308" class="st0" d="M72.4,14.1l0.3,0.6l-0.1-0.5L72.4,14.1z"/>
<path id="Path_9309" class="st0" d="M73.6,14.6L73.4,15H74C73.8,14.9,73.6,14.7,73.6,14.6L73.6,14.6z"/>
<path id="Path_9310" class="st0" d="M0.3,34.8L0.3,34.8c0.3,0,0.3-0.2,0.4-0.5L0.3,34.8z"/>
<path id="Path_9311" class="st0" d="M3.6,25.9V26l0.5-0.1H3.6z"/>
<path id="Path_9312" class="st0" d="M7.1,18.6c-0.2,0.3-0.3,0.6-0.5,0.9C6.9,18.9,7.5,18.8,7.1,18.6z"/>
<g id="Group_101209" transform="translate(111.375 58.716)">
	<g>
		<path id="Path_9313_00000060714368945113280130000014725172969070807436_" class="st0" d="M13.6,2.4v9.2l1.3,0.5v1h-4.4v-0.9
			l1.2-0.5V2.4h-0.4l-3.1,9.3H6.5L3.3,2.4H2.9v9.2L4.1,12v1H0v-0.9l1.3-0.5V2.4L0,1.9V0.8h4.7l2.8,8.6l2.7-8.6h4.7v1.1L13.6,2.4z"/>
		<path id="Path_9314_00000030483059927624187150000011868600396063658146_" class="st0" d="M16.3,13v-0.9l1.3-0.5V5.5L16.1,5V3.9
			h3.2v7.7l1.3,0.5V13H16.3z M17.3,2V0h2v2H17.3z"/>
		<path id="Path_9315_00000072998237476485198850000000992150218125851808_" class="st0" d="M26.3,13.2c-4.3,0-4.7-3.2-4.7-4.4
			c0-0.7-0.1-5.1,4.7-5.1c0.8,0,1.7,0.1,2.5,0.2v2.7h-1.5l-0.4-1.7h-0.5c-1.4,0-2.9,1.1-2.9,3.6c-0.2,1.6,0.9,3.1,2.5,3.3
			c0.2,0,0.5,0,0.7,0c0.7,0,1.3-0.1,2-0.2l0.3,1.3C28,13.1,27.2,13.2,26.3,13.2z"/>
		<path id="Path_9316_00000009573112753182967940000011568483260114425476_" class="st0" d="M35.4,6.5l-0.3-1.4
			c-0.7,0.2-1.3,0.6-1.8,1.2v5.3l1.5,0.5V13h-4.5v-0.9l1.2-0.5V5.5L30,5V3.9h2.8l0.1,1.4c0.7-1,1.9-1.6,3.1-1.6c0.2,0,0.5,0,0.7,0
			v2.8H35.4z"/>
		<path id="Path_9317_00000065787631707573384070000016677032124572890800_" class="st0" d="M41.9,13.2c-2.7,0-4.2-1.7-4.2-4.8
			s1.5-4.8,4.2-4.8s4.2,1.7,4.2,4.8S44.7,13.2,41.9,13.2z M41.9,4.9c-1.8,0-2.4,1.5-2.4,3.6s0.6,3.5,2.4,3.5s2.4-1.5,2.4-3.6
			S43.7,4.9,41.9,4.9z"/>
		<path id="Path_9318_00000085228388704605403030000005823968860516852127_" class="st0" d="M59.3,3.7L58.7,2h-2.9v4.3h3.7v1.3h-3.7
			v4l1.4,0.5v1h-4.5v-0.9l1.3-0.5V2.4L52.7,2V0.8h8.1v2.9H59.3z"/>
		<path id="Path_9319_00000003817720513186241430000013449810965636291481_" class="st0" d="M61.8,13v-0.9l1.3-0.5V5.5L61.6,5V3.9
			h3.2v7.7l1.3,0.5V13H61.8z M62.8,2V0h2v2H62.8z"/>
		<path id="Path_9320_00000021818262005816788200000009630503662728771471_" class="st0" d="M72.8,13v-0.9l1.1-0.5V6.8
			c0-0.7,0.1-1.7-1.4-1.7c-0.9,0.1-1.7,0.5-2.3,1.2v5.4l1.1,0.5V13h-4.1v-0.9l1.2-0.5V5.5L67,5V3.9h2.8l0.1,1.4
			c0.6-1,1.8-1.6,2.9-1.6c2.9,0,2.8,2.3,2.8,3v4.9l1.2,0.5V13H72.8z"/>
		<path id="Path_9321_00000084507915757560051300000012237807287683181450_" class="st0" d="M83.4,13l-0.1-1.5
			c-0.6,1-1.7,1.7-2.8,1.7c-1.4,0.2-2.7-0.9-2.9-2.3c0-0.1,0-0.2,0-0.4c0-2.2,1.7-2.9,3.6-2.9c0.8,0,1.3,0,1.9,0V6.9
			c0-1.1-0.1-1.8-1.8-1.8c-0.9,0-1.8,0.2-2.6,0.5l-0.3-1.2c1.1-0.4,2.2-0.7,3.4-0.7c3.1,0,3.2,1.9,3.2,3.1v4.9l1.3,0.5V13H83.4z
			 M83,8.8c-0.4,0-0.7,0-1.2,0c-1.5,0-2.5,0.3-2.5,1.6c0,0.8,0.6,1.4,1.4,1.4c0.1,0,0.1,0,0.2,0C82,11.8,83,11,83,9.1V8.8z"/>
		<path id="Path_9322_00000166660804685209512020000006252479952297837490_" class="st0" d="M92.5,13v-0.9l1.1-0.5V6.8
			c0-0.7,0.1-1.7-1.4-1.7c-0.9,0.1-1.7,0.5-2.3,1.2v5.4l1.1,0.5V13h-4.1v-0.9l1.2-0.5V5.5L86.6,5V3.9h2.8l0.1,1.4
			c0.6-1,1.8-1.6,2.9-1.6c2.9,0,2.8,2.3,2.8,3v4.9l1.2,0.5V13H92.5z"/>
		<path id="Path_9323_00000171711123397610263830000008541788189970479266_" class="st0" d="M101.8,13.2c-4.3,0-4.7-3.2-4.7-4.4
			c0-0.7-0.1-5.1,4.7-5.1c0.8,0,1.7,0.1,2.5,0.2v2.7h-1.5l-0.4-1.7h-0.5C100.5,4.9,99,6,99,8.5c-0.2,1.6,0.9,3.1,2.6,3.3
			c0.2,0,0.5,0,0.7,0c0.7,0,1.3-0.1,2-0.2l0.3,1.3C103.6,13.1,102.7,13.2,101.8,13.2z"/>
		<path id="Path_9324_00000076601849062566369370000011325532953718493067_" class="st0" d="M113.4,8.4h-6c-0.1,2.2,0.9,3.4,3.1,3.4
			c0.7,0,1.5-0.1,2.2-0.4l0.3,1.3c-0.9,0.3-1.9,0.5-2.9,0.5c-2.9,0-4.6-1.7-4.6-4.7c0-4,2.4-4.9,4.2-4.9c3.3,0,3.8,2.5,3.7,4.3
			L113.4,8.4z M109.6,4.9c-2,0-2.1,2.3-2.1,2.3h3.9C111.4,7.2,111.6,4.9,109.6,4.9L109.6,4.9z"/>
	</g>
</g>
<g id="Group_101210" transform="translate(26.284 31.732)">
	<g>
		<path id="Path_9325_00000083063633230429363850000000153312722222191518_" class="st0" d="M16.4,13.4v7.2
			c-2.1,0.3-4.1,0.5-6.2,0.6C3.6,21.1,0,17.6,0,10.9C0,4.3,3.1,0,10.9,0c1.9,0.1,3.8,0.2,5.7,0.5v4.8h-2.8L13,2.2
			c0,0-1.3-0.2-2.2-0.2c-5.6,0-7.5,3.7-7.5,8.6c0,5,1.9,8.5,7.5,8.5c0.9,0,2.6-0.2,2.6-0.2v-8.2h5.5v1.9L16.4,13.4z M194,13.6
			c-0.7,0-1.3,0-1.9,0c-2.5,0-4.1,0.6-4.1,2.7c0,1.3,1,2.4,2.3,2.4c0.1,0,0.2,0,0.3,0c1.9,0,3.4-1.4,3.4-4.5V13.6z M194.7,20.7
			l-0.2-2.5c-1,1.7-2.8,2.8-4.8,2.8c-2.5,0-4.9-1.2-4.9-4.5c0-3.7,2.9-4.9,6.1-4.9c1,0,2.1,0,3.1,0.1v-1.4c0-1.8-0.2-3-3.1-3
			c-1.5,0.1-3,0.4-4.4,0.8l-0.6-2c1.8-0.7,3.8-1.1,5.7-1.2c5.3,0,5.3,3.1,5.3,5.2v8.2l2.1,0.8v1.5L194.7,20.7z M180,20.9
			c-4,0-4.3-3-4.3-4.7V7.4h-2.5v-2h2.6l1.1-3.8h1.8v3.8h4.6v2h-4.6v8.5c0,0.6-0.1,2.8,2.3,2.8c0.8,0,1.5-0.1,2.2-0.3l0.4,1.9
			C182.4,20.7,181.2,20.9,180,20.9L180,20.9z M164.6,7c-3,0-4,2.5-4,6s1,6,4,6s4-2.5,4-6C168.6,9.4,167.6,7,164.6,7z M164.6,21
			c-4.5,0-7.1-2.8-7.1-8s2.6-8,7.1-8c4.6,0,7.1,2.8,7.1,8S169.2,21,164.6,21z M148.2,7c-3,0-4,2.5-4,6s1,6,4,6c2.9,0,4-2.5,4-6
			C152.1,9.4,151.1,7,148.2,7z M148.2,21c-4.5,0-7.2-2.8-7.2-8s2.6-8,7.2-8s7.1,2.8,7.1,8S152.7,21,148.2,21z M137.1,20.7l-6.2-9.9
			l-2.6,2.6v4.9l2.1,0.8v1.6H123v-1.6l2.1-0.8V2.8l-2-0.8V0.2h7.5V2l-2.2,0.7v7.4l7.2-7.6L133.8,2V0.2h7v1.9L138.6,3L133,8.8
			l6.5,9.3l1.6,0.9v1.7H137.1z M114.9,20.7v-1.5l1.8-0.8v-8.1c0-1.2,0.1-2.9-2.4-2.9c-2.1,0-3.8,2-3.8,2v9l1.8,0.8v1.5h-6.9v-1.5
			l2.1-0.8V8.1l-2.4-0.8V5.4h4.7l0.2,2.3c1.1-1.7,2.9-2.7,5-2.7c4.9,0,4.7,3.9,4.7,5.2v8.2l2.1,0.8v1.5L114.9,20.7z M96.8,6.9
			c-3.4,0-3.5,3.9-3.5,3.9h6.6C99.8,10.8,100.1,6.9,96.8,6.9z M103.1,12.9h-10c-0.2,3.6,1.6,5.7,5.3,5.7c1.2,0,2.5-0.3,3.7-0.6
			l0.6,2.2c-1.6,0.6-3.2,0.8-4.9,0.8c-5,0-7.7-2.9-7.7-7.8c0-6.7,4-8.2,7-8.2c5.6,0,6.3,4.3,6.2,7.2L103.1,12.9z M81.3,6.9
			c-3.4,0-3.5,3.9-3.5,3.9h6.6C84.3,10.8,84.6,6.9,81.3,6.9z M87.7,12.9H77.6c-0.2,3.6,1.6,5.7,5.3,5.7c1.2,0,2.5-0.3,3.7-0.6
			l0.6,2.2C85.6,20.8,84,21,82.3,21c-5,0-7.7-2.9-7.7-7.8c0-6.7,4-8.2,7-8.2c5.6,0,6.3,4.3,6.2,7.2L87.7,12.9z M66.4,20.7v-1.5
			l1.8-0.8v-8.1c0-1.2,0.1-2.9-2.4-2.9c-2,0-3.8,2-3.8,2v9l1.8,0.8v1.5h-6.7v-1.5l1.8-0.8v-8.1c0-1.2,0.1-2.9-2.4-2.9
			c-2.1,0-3.9,2-3.9,2v9l1.8,0.8v1.5h-6.9v-1.5l2.1-0.8V8.1l-2.4-0.8V5.4H52l0.2,2.3C53.4,6,55.3,5,57.3,5c2.8,0,3.9,1.3,4.4,2.6
			C62.8,5.9,64.6,5,66.5,5c5,0,4.7,3.9,4.7,5.2v8.2l2.1,0.8v1.5L66.4,20.7z M41.3,13.6c-0.7,0-1.3,0-1.9,0c-2.5,0-4.1,0.6-4.1,2.7
			c0,1.3,1,2.3,2.3,2.4c0.1,0,0.2,0,0.3,0c1.9,0,3.4-1.4,3.4-4.5V13.6z M42,20.7l-0.2-2.5C40.8,19.9,39,21,37,21
			c-2.4,0-4.9-1.2-4.9-4.5c0-3.7,2.9-4.9,6.1-4.9c1.1,0,2.1,0,3.2,0.1v-1.4c0-1.8-0.2-3-3.1-3c-1.5,0.1-3,0.3-4.4,0.8l-0.6-2
			C35.1,5.4,37,5,38.9,5c5.3,0,5.4,3.1,5.4,5.2v8.2l2.1,0.8v1.5C46.4,20.7,42,20.7,42,20.7z M29.2,9.8l-0.6-2.3
			c-1.2,0.4-2.2,1-3.1,1.9v9l2.5,0.8v1.5h-7.6v-1.5l2.1-0.8V8.1l-2.4-0.8V5.4h4.8l0.2,2.4C26.3,6,28.2,5,30.3,5c0.4,0,0.8,0,1.3,0.1
			v4.6L29.2,9.8z"/>
	</g>
</g>
</svg>
