<svg width="54" height="54" viewBox="0 0 54 54" fill="none" xmlns="http://www.w3.org/2000/svg">
<path d="M54 27C54 34.2466 51.145 40.8265 46.4985 45.6761C41.584 50.8061 34.6649 54 27 54C19.3351 54 12.416 50.8061 7.50149 45.6761C2.85501 40.8265 0 34.2466 0 27C0 12.0885 12.0885 0 27 0C41.9115 0 54 12.0885 54 27Z" fill="#D5D5D5"/>
<path d="M46.1824 45.36C41.2679 50.49 34.6649 53.46 27 53.46C19.335 53.46 12.4283 50.1614 7.51381 45.0314C10.2891 36.9304 17.9585 31.7517 27 31.7517C36.0414 31.7517 43.4071 37.259 46.1824 45.36Z" fill="white"/>
<path d="M27 28.449C33.0918 28.449 38.0302 23.5106 38.0302 17.4188C38.0302 11.327 33.0918 6.38858 27 6.38858C20.9082 6.38858 15.9698 11.327 15.9698 17.4188C15.9698 23.5106 20.9082 28.449 27 28.449Z" fill="white"/>
</svg>
